<svg width="1000" height="1000" xmlns="http://www.w3.org/2000/svg">
 <metadata>Svg Vector Icons : http://www.onlinewebfonts.com/icon</metadata>

 <g>
  <title>background</title>
  <rect fill="none" id="canvas_background" height="402" width="582" y="-1" x="-1"/>
 </g>
 <g>
  <title>Layer 1</title>
  <g id="svg_1">
   <g id="svg_2">
    <g id="svg_3">
     <path fill="#7AD6CA" stroke-width="0" id="svg_4" d="m867.5,482.700012l0,-352.700012l-612.5,-122.5l0,500.700012c-19.199997,-6.799988 -39.800003,-10.700012 -61.300003,-10.700012c-101.5,0 -183.699997,82.400024 -183.699997,183.799988c0,101.5 82.199997,183.799988 183.800003,183.799988c101.400009,0 183.800003,-82.299988 183.800003,-183.799988l0,-490l367.399994,61.200012l0,185.600006c-10.099976,-1.100006 -20.299988,-1.799988 -30.599976,-1.799988c-152.300049,0 -275.600037,123.300018 -275.600037,275.600006c0,152.200012 123.299988,275.599976 275.600037,275.599976c152.199951,-0.099976 275.599976,-123.399963 275.599976,-275.599976c0,-95.600037 -48.700012,-179.700012 -122.5,-229.200012zm-153.099976,440c-116.400024,-0.299988 -210.600006,-94.400024 -210.899994,-210.799988c0.299957,-116.400024 94.499969,-210.600037 210.899994,-210.900024c116.299988,0.299988 210.5,94.400024 210.799988,210.899963c-0.299988,116.300049 -94.5,210.500061 -210.799988,210.800049z"/>
     <polygon fill="#7AD6CA" stroke-width="0" id="svg_5" points="745.0999755859375,681.2999877929688 745.0999755859375,558.7999877929688 683.7999877929688,558.7999877929688 683.7999877929688,681.2999877929688 561.2999877929688,681.2999877929688 561.2999877929688,742.5 683.7999877929688,742.5 683.7999877929688,865 745.0999755859375,865 745.0999755859375,742.5 867.5,742.5 867.5,681.2999877929688 "/>
    </g>
   </g>
   <g id="svg_6"/>
   <g id="svg_7"/>
   <g id="svg_8"/>
   <g id="svg_9"/>
   <g id="svg_10"/>
   <g id="svg_11"/>
   <g id="svg_12"/>
   <g id="svg_13"/>
   <g id="svg_14"/>
   <g id="svg_15"/>
   <g id="svg_16"/>
   <g id="svg_17"/>
   <g id="svg_18"/>
   <g id="svg_19"/>
   <g id="svg_20"/>
  </g>
 </g>
</svg>

